<?xml version="1.0" encoding="utf-8"?>
<!-- Generator: Adobe Illustrator 22.1.0, SVG Export Plug-In . SVG Version: 6.00 Build 0)  -->
<svg version="1.1" id="Layer_1" xmlns="http://www.w3.org/2000/svg" xmlns:xlink="http://www.w3.org/1999/xlink" x="0px" y="0px"
	 viewBox="0 0 200 37.4" style="enable-background:new 0 0 200 37.4;" xml:space="preserve">
<style type="text/css">
	.st0{fill:#FFFFFF;}
	.st1{fill:#C2A078;}
</style>
<g>
	<path class="st0" d="M-0.1,14.2h1.2l1.7,8.1l1.7-8.1h1.2l-2.1,9.1H1.9L-0.1,14.2z M13,23.2v-9.1h1.2v9.1L13,23.2L13,23.2z
		 M23.1,18.8v4.4h-1.2v-9.1h2.7c1.5,0,2.5,0.8,2.5,2.3v0.4c0,1.5-1.1,2.2-2.4,2.3l2.7,4.1h-1.4L23.1,18.8z M23.1,15.3v2.9h1.3
		c0.9,0,1.4-0.4,1.4-1.4v-0.1c0-1-0.6-1.3-1.4-1.3C24.4,15.3,23.1,15.3,23.1,15.3z M37.2,15.3v8H36v-8h-1.9v-1.1h5v1.1H37.2z
		 M46.1,20.3v-3.1c0-2.1,1-3.1,2.7-3.1c1.7,0,2.7,1,2.7,3.1v3.1c0,2.1-1,3.1-2.7,3.1C47.2,23.4,46.1,22.4,46.1,20.3z M50.3,20.3
		v-3.1c0-1.4-0.6-2-1.5-2s-1.5,0.5-1.5,2v3.1c0,1.5,0.6,2,1.5,2C49.7,22.3,50.3,21.7,50.3,20.3z M61.3,14c1.3,0,2.3,0.8,2.3,2.4V17
		h-1.2v-0.5c0-0.9-0.4-1.4-1.1-1.4c-0.6,0-1.1,0.4-1.1,1.1c0,0.7,0.5,1.2,1.1,1.6l1,0.7c0.8,0.6,1.5,1.3,1.5,2.4
		c0,1.6-1.1,2.4-2.4,2.4c-1.4,0-2.4-0.9-2.4-2.4v-0.7h1.2v0.6c0,0.9,0.5,1.4,1.2,1.4c0.8,0,1.2-0.4,1.2-1.2c0-0.8-0.5-1.2-1.1-1.7
		l-1-0.7c-0.8-0.6-1.5-1.3-1.5-2.5C59.1,14.7,60.1,14,61.3,14z M72.4,14.2v6.3c0,1.3,0.5,1.8,1.4,1.8c0.9,0,1.4-0.5,1.4-1.8v-6.3
		h1.2v6.3c0,2-1,2.9-2.6,2.9c-1.6,0-2.6-1-2.6-2.9v-6.3H72.4z"/>
	<path class="st0" d="M127.6,22.2c-0.4,0.8-1,1.2-1.8,1.2c-1.5,0-2.4-1-2.4-3.1v-3.1c0-2.1,1-3.1,2.7-3.1c1.7,0,2.7,1,2.7,3.1v0.4
		h-1.2v-0.4c0-1.4-0.6-2-1.5-2c-0.9,0-1.5,0.5-1.5,2v3.1c0,1.4,0.6,2,1.5,2c0.9,0,1.5-0.6,1.5-1.9v-0.8h-1.6v-1.1h2.9v4.8h-1.1
		L127.6,22.2L127.6,22.2z M139.9,21h-2.5l-0.5,2.2h-1.2l2-9.1h1.8l2,9.1h-1.2L139.9,21z M138.7,15.1l-1,4.8h2L138.7,15.1z
		 M148.6,14.2h1.2v8h3v1.1h-4.2V14.2z M159.9,14.2h1.2v8h3v1.1h-4.2V14.2z M171.1,14.2h4.1v1.1h-2.9V18h2.6v1.1h-2.6v3h2.9v1.1h-4.1
		V14.2z M183.6,18.8v4.4h-1.2v-9.1h2.7c1.5,0,2.5,0.8,2.5,2.3v0.4c0,1.5-1.1,2.2-2.4,2.3l2.7,4.1h-1.4L183.6,18.8z M183.6,15.3v2.9
		h1.3c0.9,0,1.4-0.4,1.4-1.4v-0.1c0-1-0.6-1.3-1.4-1.3C184.9,15.3,183.6,15.3,183.6,15.3z M197.6,23.2h-1.2v-3.6l-2.3-5.4h1.2
		l1.7,4.2l1.7-4.2h1.2l-2.3,5.4V23.2z"/>
	<path class="st1" d="M118.4,0c0,0-9.1,2.2-18.7,37.4c0,0-11.8-32.6-6.9-37.4h4.8c0,0-3.8,4.8,1.1,27.8c0,0-2.8-22.9,2-27.8h5.3
		c0,0-6.1,4.8-6.1,28.4c0,0,3.3-23.6,9.8-28.4H118.4z M81,0c0,0,2,0.2,5.7,5.3h1.8C88.3,1,89.6,0,89.6,0H81z"/>
</g>
</svg>
